<svg id="visual" viewBox="0 0 900 600" width="900" height="600" xmlns="http://www.w3.org/2000/svg" xmlns:xlink="http://www.w3.org/1999/xlink" version="1.1"><rect x="0" y="0" width="900" height="600" fill="#002233"></rect><path d="M0 472L15 469.2C30 466.3 60 460.7 90 452.5C120 444.3 150 433.7 180 442.8C210 452 240 481 270 491.3C300 501.7 330 493.3 360 481.5C390 469.7 420 454.3 450 463C480 471.7 510 504.3 540 507C570 509.7 600 482.3 630 475.3C660 468.3 690 481.7 720 482.2C750 482.7 780 470.3 810 470.8C840 471.3 870 484.7 885 491.3L900 498L900 601L885 601C870 601 840 601 810 601C780 601 750 601 720 601C690 601 660 601 630 601C600 601 570 601 540 601C510 601 480 601 450 601C420 601 390 601 360 601C330 601 300 601 270 601C240 601 210 601 180 601C150 601 120 601 90 601C60 601 30 601 15 601L0 601Z" fill="#0066FF" stroke-linecap="round" stroke-linejoin="miter"></path></svg>